<svg xmlns="http://www.w3.org/2000/svg" width="32" height="32" viewBox="0 0 512 512">
  <g fill-rule="nonzero">
    <path d="M255.998 0c70.69 0 134.694 28.658 181.017 74.982C483.342 121.308 512 185.312 512 256.002c0 70.689-28.658 134.69-74.985 181.016C390.692 483.342 326.688 512 255.998 512c-70.689 0-134.687-28.658-181.017-74.982C28.657 390.689 0 326.691 0 256.002c0-70.69 28.657-134.694 74.981-181.017C121.308 28.658 185.309 0 255.998 0z" fill="#1a1918"/>
    <path fill="#fff" d="M283.004 162.24h63.307l-46.503 187.523h-87.61L165.691 162.24h63.307l25.505 119.116h2.7z"/>
  </g>
</svg>
